<svg width="183" height="183" viewBox="0 0 183 183" fill="none" xmlns="http://www.w3.org/2000/svg">
<rect x="45.75" y="45.75" width="91.5" height="91.5" rx="45.75" fill="#BFDA4F"/>
<rect x="45.75" y="45.75" width="91.5" height="91.5" rx="45.75" fill="#BFDA4F"/>
<circle cx="91.5" cy="91.5" r="25.1625" fill="white"/>
<circle cx="91.5" cy="91.5" r="36.6" transform="rotate(-90 91.5 91.5)" fill="#BFDA4F"/>
<path d="M73.3761 89.191C76.4336 89.191 77.6772 90.7881 79.1528 91.8528C77.6772 92.9176 76.4336 94.5146 73.3761 94.5146C70.3186 94.5146 67.8401 93.3229 67.8401 91.8528C67.8401 90.3827 70.3186 89.191 73.3761 89.191Z" fill="#313131"/>
<path d="M109.624 89.191C106.566 89.191 105.323 90.7881 103.847 91.8528C105.323 92.9176 106.566 94.5146 109.624 94.5146C112.681 94.5146 115.16 93.3229 115.16 91.8528C115.16 90.3827 112.681 89.191 109.624 89.191Z" fill="#313131"/>
<path d="M89.1911 109.624C89.1911 106.566 90.7882 105.323 91.853 103.847C92.9177 105.323 94.5148 106.566 94.5148 109.624C94.5148 112.681 93.323 115.16 91.853 115.16C90.3829 115.16 89.1911 112.681 89.1911 109.624Z" fill="#313131"/>
<path d="M89.1911 73.376C89.1911 76.4334 90.7882 77.6771 91.853 79.1527C92.9177 77.6771 94.5148 76.4334 94.5148 73.376C94.5148 70.3185 93.323 67.8399 91.853 67.8399C90.3829 67.8399 89.1911 70.3185 89.1911 73.376Z" fill="#313131"/>
<path d="M77.0518 102.683C79.2137 100.521 81.2225 100.771 83.0187 100.48C82.7282 102.276 82.9781 104.285 80.8162 106.447C78.6542 108.609 76.0589 109.519 75.0194 108.48C73.9799 107.44 74.8898 104.845 77.0518 102.683Z" fill="#313131"/>
<path d="M102.683 77.0517C100.521 79.2136 100.771 81.2224 100.48 83.0186C102.277 82.7281 104.285 82.978 106.447 80.8161C108.609 78.6541 109.519 76.0588 108.48 75.0193C107.44 73.9798 104.845 74.8897 102.683 77.0517Z" fill="#313131"/>
<path d="M102.683 105.948C100.521 103.786 100.771 101.777 100.48 99.9812C102.277 100.272 104.285 100.022 106.447 102.184C108.609 104.346 109.519 106.941 108.48 107.98C107.44 109.02 104.845 108.11 102.683 105.948Z" fill="#313131"/>
<path d="M77.0518 80.3169C79.2137 82.4789 81.2225 82.229 83.0187 82.5195C82.7282 80.7232 82.9781 78.7145 80.8162 76.5525C78.6542 74.3906 76.0589 73.4807 75.0194 74.5202C73.9799 75.5597 74.8898 78.155 77.0518 80.3169Z" fill="#313131"/>
<circle cx="91.7288" cy="91.7288" r="8.00625" fill="#F6E990"/>
</svg>
